<svg xmlns="http://www.w3.org/2000/svg" viewBox="0 0 48 48">
  <path fill="#EA4335" d="M24 9.5c3.13 0 5.93 1.08 8.14 2.86l5.98-5.98C34.67 3 29.67 1 24 1 14.93 1 7 6.58 3.38 14.5l6.98 5.41C12.11 13.5 17.55 9.5 24 9.5z"/>
  <path fill="#4285F4" d="M46.5 24.5c0-1.6-.14-3.13-.39-4.5H24v9h12.7c-.57 2.9-2.23 5.36-4.73 7.02l7.32 5.68C43.7 37.3 46.5 31.35 46.5 24.5z"/>
  <path fill="#FBBC05" d="M10.36 28.91C9.72 27.06 9.36 25.08 9.36 23c0-2.08.36-4.06 1-5.91L3.38 11.5C1.82 14.63 1 18.21 1 22c0 3.79.82 7.37 2.38 10.5l6.98-3.59z"/>
  <path fill="#34A853" d="M24 47c5.67 0 10.67-1.87 14.23-5.09l-7.32-5.68C28.92 37.65 26.61 38.5 24 38.5c-6.45 0-11.89-4-13.64-9.91l-6.98 3.59C7 41.42 14.93 47 24 47z"/>
</svg>
